<?xml version="1.0" encoding="UTF-8"?>
<svg xmlns="http://www.w3.org/2000/svg" xmlns:xlink="http://www.w3.org/1999/xlink" version="1.1" viewBox="0 0 1024 1024">
  <defs>
    <style>
      .cls-1 {
        fill: none;
      }

      .cls-2 {
        fill: #00c99e;
      }

      .cls-3 {
        clip-path: url(#clippath-1);
      }

      .cls-4 {
        fill: #020f59;
      }

      .cls-5 {
        clip-path: url(#clippath);
      }
    </style>
    <clipPath id="clippath">
      <rect class="cls-1" x="0" y=".9" width="1024" height="1024.1"/>
    </clipPath>
    <clipPath id="clippath-1">
      <polygon class="cls-1" points="167.1 88.7 167.1 937.1 856.7 937.1 856.7 88.7 167.1 88.7 167.1 88.7"/>
    </clipPath>
  </defs>
  <!-- Generator: Adobe Illustrator 28.6.0, SVG Export Plug-In . SVG Version: 1.2.0 Build 709)  -->
  <g>
    <g id="Layer_1">
      <g>
        <g class="cls-5">
          <polygon class="cls-4" points="-.2 .8 -.2 1025 1023.9 1025 1023.9 .8 -.2 .8 -.2 .8"/>
        </g>
        <g class="cls-3">
          <path class="cls-2" d="M809,331.4c-1-1.1-20.2-20.2-21.2-21.2L169.1,935.1l580.4-328.2c105.3-59.6,143.1-187.9,59.5-275.3h0Z"/>
        </g>
        <path class="cls-2" d="M671.1,201.3c-.8-.8-15-15.1-15.8-15.8l-460.8,465.5,432.3-244.5c78.4-44.4,106.6-139.9,44.3-205.1h0Z"/>
        <path class="cls-2" d="M570.9,101.2c-.5-.5-10-10-10.5-10.5L254.4,399.8l287-162.4c52.1-29.5,70.8-92.9,29.5-136.2h0Z"/>
      </g>
    </g>
  </g>
</svg>